<mxfile host="app.diagrams.net" modified="2022-11-24T01:48:04.510Z" agent="5.0 (Windows NT 10.0; Win64; x64) AppleWebKit/537.36 (KHTML, like Gecko) Chrome/107.0.0.0 Safari/537.36 Edg/107.0.1418.56" version="20.6.0" etag="ct6i-u1ruOWIavV612UA" type="github">
  <diagram id="NnzZ0H_yQoRmiwkCd6tf" name="ページ1">
    <mxGraphModel dx="1422" dy="786" grid="1" gridSize="10" guides="1" tooltips="1" connect="1" arrows="1" fold="1" page="1" pageScale="1" pageWidth="827" pageHeight="1169" math="0" shadow="0">
      <root>
        <mxCell id="0" />
        <mxCell id="1" parent="0" />
        <mxCell id="rFxlMDQk0PwinFuXbWSe-1" value="" style="endArrow=classic;html=1;rounded=0;" edge="1" parent="1">
          <mxGeometry width="50" height="50" relative="1" as="geometry">
            <mxPoint x="160" y="398" as="sourcePoint" />
            <mxPoint x="560" y="398" as="targetPoint" />
          </mxGeometry>
        </mxCell>
        <mxCell id="rFxlMDQk0PwinFuXbWSe-2" value="" style="endArrow=classic;html=1;rounded=0;" edge="1" parent="1">
          <mxGeometry width="50" height="50" relative="1" as="geometry">
            <mxPoint x="160" y="398" as="sourcePoint" />
            <mxPoint x="160" y="78" as="targetPoint" />
          </mxGeometry>
        </mxCell>
        <mxCell id="rFxlMDQk0PwinFuXbWSe-4" value="委任型" style="rounded=0;whiteSpace=wrap;html=1;fontSize=20;" vertex="1" parent="1">
          <mxGeometry x="180" y="238" width="160" height="140" as="geometry" />
        </mxCell>
        <mxCell id="rFxlMDQk0PwinFuXbWSe-5" value="指示型" style="rounded=0;whiteSpace=wrap;html=1;fontSize=20;" vertex="1" parent="1">
          <mxGeometry x="360" y="238" width="160" height="140" as="geometry" />
        </mxCell>
        <mxCell id="rFxlMDQk0PwinFuXbWSe-6" value="支援型" style="rounded=0;whiteSpace=wrap;html=1;fontSize=20;" vertex="1" parent="1">
          <mxGeometry x="180" y="88" width="160" height="140" as="geometry" />
        </mxCell>
        <mxCell id="rFxlMDQk0PwinFuXbWSe-7" value="コーチ型" style="rounded=0;whiteSpace=wrap;html=1;fontSize=20;" vertex="1" parent="1">
          <mxGeometry x="360" y="88" width="160" height="140" as="geometry" />
        </mxCell>
        <mxCell id="rFxlMDQk0PwinFuXbWSe-8" value="指示的行動" style="text;html=1;strokeColor=none;fillColor=none;align=center;verticalAlign=middle;whiteSpace=wrap;rounded=0;fontSize=20;" vertex="1" parent="1">
          <mxGeometry x="380" y="428" width="120" height="30" as="geometry" />
        </mxCell>
        <mxCell id="rFxlMDQk0PwinFuXbWSe-9" value="支援的行動" style="text;html=1;strokeColor=none;fillColor=none;align=center;verticalAlign=middle;whiteSpace=wrap;rounded=0;fontSize=20;" vertex="1" parent="1">
          <mxGeometry x="20" y="178" width="120" height="30" as="geometry" />
        </mxCell>
        <mxCell id="rFxlMDQk0PwinFuXbWSe-10" value="リーダーシップのSL理論" style="text;html=1;strokeColor=none;fillColor=none;align=center;verticalAlign=middle;whiteSpace=wrap;rounded=0;fontSize=20;" vertex="1" parent="1">
          <mxGeometry x="20" y="10" width="230" height="30" as="geometry" />
        </mxCell>
        <mxCell id="rFxlMDQk0PwinFuXbWSe-11" value="&lt;h1&gt;２軸で見る&lt;/h1&gt;&lt;p&gt;相手のコンピタンス（能力、力量、経験）&lt;/p&gt;&lt;p&gt;相手のコミットメント（モチベーション）&lt;/p&gt;" style="text;html=1;strokeColor=default;fillColor=none;spacing=5;spacingTop=-20;whiteSpace=wrap;overflow=hidden;rounded=0;fontSize=20;labelBorderColor=none;spacingLeft=30;" vertex="1" parent="1">
          <mxGeometry x="20" y="530" width="460" height="190" as="geometry" />
        </mxCell>
        <mxCell id="rFxlMDQk0PwinFuXbWSe-12" value="リーダーの行動" style="text;html=1;strokeColor=none;fillColor=none;align=center;verticalAlign=middle;whiteSpace=wrap;rounded=0;labelBorderColor=none;fontSize=14;" vertex="1" parent="1">
          <mxGeometry x="60" y="418" width="150" height="10" as="geometry" />
        </mxCell>
        <mxCell id="rFxlMDQk0PwinFuXbWSe-13" value="" style="triangle;whiteSpace=wrap;html=1;labelBorderColor=none;strokeColor=default;fontSize=14;" vertex="1" parent="1">
          <mxGeometry x="480" y="580" width="60" height="80" as="geometry" />
        </mxCell>
        <mxCell id="rFxlMDQk0PwinFuXbWSe-14" value="例：&lt;br&gt;相手のスキルが低い→指示的行動を強める&lt;br&gt;&lt;br&gt;相手のスキルが高い→支援的行動を強める" style="text;html=1;strokeColor=#67AB9F;fillColor=none;align=left;verticalAlign=middle;whiteSpace=wrap;rounded=0;labelBorderColor=none;fontSize=14;spacingBottom=5;spacingTop=2;dashed=1;spacingLeft=5;spacingRight=5;fontColor=#67AB9F;" vertex="1" parent="1">
          <mxGeometry x="580" y="555" width="190" height="130" as="geometry" />
        </mxCell>
        <mxCell id="rFxlMDQk0PwinFuXbWSe-15" value="" style="html=1;shadow=0;dashed=0;align=center;verticalAlign=middle;shape=mxgraph.arrows2.arrow;dy=0.6;dx=40;notch=0;labelBorderColor=none;strokeColor=#82b366;fontSize=14;labelBackgroundColor=none;fillColor=#d5e8d4;" vertex="1" parent="1">
          <mxGeometry x="310" y="286.5" width="70" height="43" as="geometry" />
        </mxCell>
        <mxCell id="rFxlMDQk0PwinFuXbWSe-17" value="" style="endArrow=classic;html=1;rounded=0;fontSize=14;" edge="1" parent="1">
          <mxGeometry width="50" height="50" relative="1" as="geometry">
            <mxPoint x="414" y="270" as="sourcePoint" />
            <mxPoint x="414" y="200" as="targetPoint" />
          </mxGeometry>
        </mxCell>
        <mxCell id="rFxlMDQk0PwinFuXbWSe-18" value="" style="endArrow=classic;html=1;rounded=0;fontSize=14;" edge="1" parent="1">
          <mxGeometry width="50" height="50" relative="1" as="geometry">
            <mxPoint x="450" y="200" as="sourcePoint" />
            <mxPoint x="450" y="270" as="targetPoint" />
          </mxGeometry>
        </mxCell>
        <mxCell id="rFxlMDQk0PwinFuXbWSe-19" value="" style="endArrow=classic;html=1;rounded=0;fontSize=14;" edge="1" parent="1">
          <mxGeometry width="50" height="50" relative="1" as="geometry">
            <mxPoint x="241.5" y="270" as="sourcePoint" />
            <mxPoint x="241.5" y="200" as="targetPoint" />
          </mxGeometry>
        </mxCell>
        <mxCell id="rFxlMDQk0PwinFuXbWSe-20" value="" style="endArrow=classic;html=1;rounded=0;fontSize=14;" edge="1" parent="1">
          <mxGeometry width="50" height="50" relative="1" as="geometry">
            <mxPoint x="277.5" y="200" as="sourcePoint" />
            <mxPoint x="277.5" y="270" as="targetPoint" />
          </mxGeometry>
        </mxCell>
        <mxCell id="rFxlMDQk0PwinFuXbWSe-21" value="" style="endArrow=classic;html=1;rounded=0;fontSize=14;" edge="1" parent="1">
          <mxGeometry width="50" height="50" relative="1" as="geometry">
            <mxPoint x="300" y="130" as="sourcePoint" />
            <mxPoint x="390" y="130" as="targetPoint" />
          </mxGeometry>
        </mxCell>
        <mxCell id="rFxlMDQk0PwinFuXbWSe-24" value="" style="endArrow=classic;html=1;rounded=0;fontSize=14;" edge="1" parent="1">
          <mxGeometry width="50" height="50" relative="1" as="geometry">
            <mxPoint x="380" y="158" as="sourcePoint" />
            <mxPoint x="300" y="157.5" as="targetPoint" />
          </mxGeometry>
        </mxCell>
        <mxCell id="rFxlMDQk0PwinFuXbWSe-25" value="※主体的に考えてもらうエッセンスを加える" style="text;html=1;strokeColor=none;fillColor=none;align=center;verticalAlign=middle;whiteSpace=wrap;rounded=0;dashed=1;labelBackgroundColor=none;labelBorderColor=none;fontSize=14;" vertex="1" parent="1">
          <mxGeometry x="540" y="70" width="160" height="30" as="geometry" />
        </mxCell>
        <mxCell id="rFxlMDQk0PwinFuXbWSe-26" value="&lt;h1&gt;相手の状態に合わせた行動をとる&lt;/h1&gt;&lt;p&gt;コンピタンス低、コミットメント低&lt;/p&gt;&lt;p&gt;コンピタンス低、コミットメント高&lt;/p&gt;&lt;p&gt;コンピタンス高、コミットメント低&lt;/p&gt;&lt;p&gt;コンピタンス高、コミットメント高&lt;/p&gt;" style="text;html=1;strokeColor=#67AB9F;fillColor=none;spacing=5;spacingTop=-20;whiteSpace=wrap;overflow=hidden;rounded=0;dashed=1;labelBackgroundColor=none;labelBorderColor=none;fontSize=14;fontColor=#67AB9F;" vertex="1" parent="1">
          <mxGeometry x="570" y="158" width="240" height="220" as="geometry" />
        </mxCell>
      </root>
    </mxGraphModel>
  </diagram>
</mxfile>
